<svg width="93" height="42" viewBox="0 0 93 42" fill="none" xmlns="http://www.w3.org/2000/svg">
<path d="M3.94 32C2.98 32 2.155 31.655 1.465 30.965C0.805 30.275 0.475 29.45 0.475 28.49V4.865C0.475 3.245 1.015 2.045 2.095 1.265C3.175 0.484998 4.84 0.0949977 7.09 0.0949977V26.285H18.7C20.2 26.285 21.34 26.78 22.12 27.77C22.93 28.73 23.335 30.14 23.335 32H3.94ZM34.6286 32.405C32.6486 32.405 30.8486 32.045 29.2286 31.325C27.6086 30.605 26.3336 29.615 25.4036 28.355C24.4736 27.065 24.0086 25.61 24.0086 23.99V18.005C24.0086 16.355 24.4586 14.855 25.3586 13.505C26.2586 12.125 27.5186 11.045 29.1386 10.265C30.7586 9.485 32.5886 9.095 34.6286 9.095C36.6686 9.095 38.4986 9.485 40.1186 10.265C41.7386 11.045 42.9986 12.125 43.8986 13.505C44.7986 14.855 45.2486 16.355 45.2486 18.005V23.99C45.2486 25.61 44.7836 27.065 43.8536 28.355C42.9236 29.615 41.6486 30.605 40.0286 31.325C38.4086 32.045 36.6086 32.405 34.6286 32.405ZM34.6286 27.095C36.0386 27.095 37.1336 26.78 37.9136 26.15C38.6936 25.52 39.0836 24.65 39.0836 23.54V18.32C39.0836 17.15 38.6786 16.205 37.8686 15.485C37.0886 14.765 36.0086 14.405 34.6286 14.405C33.2486 14.405 32.1536 14.765 31.3436 15.485C30.5636 16.205 30.1736 17.15 30.1736 18.32V23.54C30.1736 24.65 30.5636 25.52 31.3436 26.15C32.1236 26.78 33.2186 27.095 34.6286 27.095ZM57.5607 41.405C55.7307 41.405 54.1107 41.15 52.7007 40.64C51.2907 40.16 50.1957 39.5 49.4157 38.66C48.6657 37.82 48.2907 36.89 48.2907 35.87C48.2907 34.79 48.6657 34.025 49.4157 33.575C50.1957 33.125 51.2907 32.9 52.7007 32.9C53.0007 35.33 54.6207 36.545 57.5607 36.545C59.2407 36.545 60.4107 36.125 61.0707 35.285C61.7607 34.475 62.1057 33.335 62.1057 31.865V30.695C62.6157 30.335 62.9457 30.035 63.0957 29.795L62.9157 29.57C62.1357 30.32 61.0857 30.905 59.7657 31.325C58.4757 31.745 57.3057 31.955 56.2557 31.955C54.6057 31.955 53.1057 31.61 51.7557 30.92C50.4357 30.23 49.3857 29.27 48.6057 28.04C47.8557 26.78 47.4807 25.37 47.4807 23.81V17.285C47.4807 15.785 47.8707 14.42 48.6507 13.19C49.4607 11.93 50.5257 10.94 51.8457 10.22C53.1657 9.47 54.5457 9.095 55.9857 9.095C57.6357 9.095 59.0307 9.425 60.1707 10.085C61.3407 10.715 62.3907 11.66 63.3207 12.92L63.5457 12.74C63.3957 12.47 63.1107 12.08 62.6907 11.57C62.6907 9.92 64.5807 9.095 68.3607 9.095V30.92C68.3607 32.93 67.8957 34.73 66.9657 36.32C66.0357 37.94 64.7457 39.185 63.0957 40.055C61.4457 40.955 59.6007 41.405 57.5607 41.405ZM57.9207 26.69C59.1807 26.69 60.2157 26.39 61.0257 25.79C61.8357 25.16 62.2407 24.41 62.2407 23.54V17.51C62.2407 16.61 61.8357 15.86 61.0257 15.26C60.2157 14.66 59.1807 14.36 57.9207 14.36C56.5407 14.36 55.4757 14.66 54.7257 15.26C54.0057 15.83 53.6457 16.655 53.6457 17.735V23.36C53.6457 24.41 54.0057 25.235 54.7257 25.835C55.4457 26.405 56.5107 26.69 57.9207 26.69ZM81.6501 32.405C79.6701 32.405 77.8701 32.045 76.2501 31.325C74.6301 30.605 73.3551 29.615 72.4251 28.355C71.4951 27.065 71.0301 25.61 71.0301 23.99V18.005C71.0301 16.355 71.4801 14.855 72.3801 13.505C73.2801 12.125 74.5401 11.045 76.1601 10.265C77.7801 9.485 79.6101 9.095 81.6501 9.095C83.6901 9.095 85.5201 9.485 87.1401 10.265C88.7601 11.045 90.0201 12.125 90.9201 13.505C91.8201 14.855 92.2701 16.355 92.2701 18.005V23.99C92.2701 25.61 91.8051 27.065 90.8751 28.355C89.9451 29.615 88.6701 30.605 87.0501 31.325C85.4301 32.045 83.6301 32.405 81.6501 32.405ZM81.6501 27.095C83.0601 27.095 84.1551 26.78 84.9351 26.15C85.7151 25.52 86.1051 24.65 86.1051 23.54V18.32C86.1051 17.15 85.7001 16.205 84.8901 15.485C84.1101 14.765 83.0301 14.405 81.6501 14.405C80.2701 14.405 79.1751 14.765 78.3651 15.485C77.5851 16.205 77.1951 17.15 77.1951 18.32V23.54C77.1951 24.65 77.5851 25.52 78.3651 26.15C79.1451 26.78 80.2401 27.095 81.6501 27.095Z" fill="#F2F2F2"/>
</svg>
