<svg width="24" height="24" viewBox="0 0 24 24" fill="none" xmlns="http://www.w3.org/2000/svg">
<path d="M14.4912 11.795C14.9898 11.0265 15.1934 10.0942 15.0623 9.17941C14.9311 8.26466 14.4747 7.43294 13.7818 6.84609C13.0888 6.25923 12.2089 5.95923 11.3133 6.00444C10.4177 6.04966 9.5705 6.43687 8.93646 7.09072C8.30242 7.74458 7.92695 8.6183 7.8831 9.54188C7.83925 10.4655 8.13017 11.3728 8.69924 12.0874C9.26831 12.802 10.0748 13.2727 10.9619 13.408C11.8489 13.5432 12.753 13.3332 13.4982 12.819L15.8992 15.294L15.9641 15.352L15.9719 15.358C16.1144 15.4646 16.2905 15.5121 16.4653 15.4911C16.6402 15.4701 16.801 15.3821 16.9159 15.2446C17.0308 15.1071 17.0914 14.9301 17.0858 14.7487C17.0801 14.5672 17.0086 14.3946 16.8853 14.265L14.4902 11.795H14.4912ZM11.4899 7.447C12.0754 7.447 12.6369 7.68684 13.0509 8.11377C13.4649 8.5407 13.6975 9.11973 13.6975 9.7235C13.6975 10.3273 13.4649 10.9063 13.0509 11.3332C12.6369 11.7602 12.0754 12 11.4899 12C10.9045 12 10.343 11.7602 9.92899 11.3332C9.515 10.9063 9.28242 10.3273 9.28242 9.7235C9.28242 9.11973 9.515 8.5407 9.92899 8.11377C10.343 7.68684 10.9045 7.447 11.4899 7.447ZM6.42424 2C5.78129 2 5.16468 2.26339 4.71004 2.73223C4.25541 3.20107 4 3.83696 4 4.5V19.5C4 20.163 4.25541 20.7989 4.71004 21.2678C5.16468 21.7366 5.78129 22 6.42424 22H19.2727C19.4656 22 19.6506 21.921 19.787 21.7803C19.9234 21.6397 20 21.4489 20 21.25C20 21.0511 19.9234 20.8603 19.787 20.7197C19.6506 20.579 19.4656 20.5 19.2727 20.5H6.42424C6.16706 20.5 5.92042 20.3946 5.73856 20.2071C5.55671 20.0196 5.45455 19.7652 5.45455 19.5H19.2727C19.4656 19.5 19.6506 19.421 19.787 19.2803C19.9234 19.1397 20 18.9489 20 18.75V4.5C20 4.1717 19.9373 3.84661 19.8155 3.54329C19.6936 3.23998 19.5151 2.96438 19.29 2.73223C19.0648 2.50009 18.7976 2.31594 18.5035 2.1903C18.2094 2.06466 17.8941 2 17.5758 2H6.42424ZM18.5455 18H5.45455V4.5C5.45455 4.23478 5.55671 3.98043 5.73856 3.79289C5.92042 3.60536 6.16706 3.5 6.42424 3.5H17.5758C17.8329 3.5 18.0796 3.60536 18.2614 3.79289C18.4433 3.98043 18.5455 4.23478 18.5455 4.5V18Z" fill="white"/>
</svg>
