<svg width="24" height="24" viewBox="0 0 24 24" fill="none" xmlns="http://www.w3.org/2000/svg">
<path d="M10.7879 8.018C10.7833 8.21378 10.7047 8.39995 10.5688 8.53673C10.4329 8.67351 10.2505 8.75006 10.0606 8.75C9.33333 8.75 9.33333 7.999 9.33333 7.999V7.99C9.33384 7.94523 9.33643 7.90051 9.34109 7.856C9.38399 7.46971 9.52442 7.10179 9.74836 6.789C10.1886 6.176 10.9799 5.727 12.255 5.75C13.1762 5.767 13.9937 6.165 14.5057 6.82C15.0264 7.487 15.2019 8.39 14.8567 9.279C14.5057 10.184 13.7115 10.544 13.2548 10.75L13.2063 10.773C12.9348 10.896 12.8058 10.96 12.7282 11.024L12.7273 11.025V11.749C12.7274 11.9479 12.6509 12.1387 12.5146 12.2795C12.3783 12.4202 12.1934 12.4994 12.0005 12.4995C11.8076 12.4996 11.6226 12.4207 11.4861 12.2802C11.3496 12.1396 11.2729 11.9489 11.2727 11.75V11C11.2727 10.477 11.5171 10.103 11.8187 9.853C12.0611 9.653 12.3665 9.515 12.5808 9.417L12.6177 9.4C13.1433 9.161 13.3935 9.013 13.5069 8.721C13.5735 8.56401 13.5963 8.39095 13.5726 8.22134C13.549 8.05172 13.4799 7.89229 13.3731 7.761C13.1578 7.486 12.7632 7.259 12.2298 7.25C11.3232 7.234 11.0225 7.535 10.9178 7.682C10.8485 7.77908 10.8038 7.89254 10.7879 8.012V8.018ZM12 15.5C12.2572 15.5 12.5038 15.3946 12.6857 15.2071C12.8675 15.0196 12.9697 14.7652 12.9697 14.5C12.9697 14.2348 12.8675 13.9804 12.6857 13.7929C12.5038 13.6054 12.2572 13.5 12 13.5C11.7428 13.5 11.4962 13.6054 11.3143 13.7929C11.1325 13.9804 11.0303 14.2348 11.0303 14.5C11.0303 14.7652 11.1325 15.0196 11.3143 15.2071C11.4962 15.3946 11.7428 15.5 12 15.5ZM4 4.5C4 3.83696 4.25541 3.20107 4.71004 2.73223C5.16468 2.26339 5.78129 2 6.42424 2H17.5758C17.8941 2 18.2094 2.06466 18.5035 2.1903C18.7976 2.31594 19.0648 2.50009 19.29 2.73223C19.5151 2.96438 19.6936 3.23998 19.8155 3.54329C19.9373 3.84661 20 4.1717 20 4.5V18.75C20 18.9489 19.9234 19.1397 19.787 19.2803C19.6506 19.421 19.4656 19.5 19.2727 19.5H5.45455C5.45455 19.7652 5.55671 20.0196 5.73856 20.2071C5.92042 20.3946 6.16706 20.5 6.42424 20.5H19.2727C19.4656 20.5 19.6506 20.579 19.787 20.7197C19.9234 20.8603 20 21.0511 20 21.25C20 21.4489 19.9234 21.6397 19.787 21.7803C19.6506 21.921 19.4656 22 19.2727 22H6.42424C5.78129 22 5.16468 21.7366 4.71004 21.2678C4.25541 20.7989 4 20.163 4 19.5V4.5ZM5.45455 4.5V18H18.5455V4.5C18.5455 4.23478 18.4433 3.98043 18.2614 3.79289C18.0796 3.60536 17.8329 3.5 17.5758 3.5H6.42424C6.16706 3.5 5.92042 3.60536 5.73856 3.79289C5.55671 3.98043 5.45455 4.23478 5.45455 4.5Z" fill="white"/>
</svg>
