<svg width="24" height="24" viewBox="0 0 24 24" fill="none" xmlns="http://www.w3.org/2000/svg">
<path fill-rule="evenodd" clip-rule="evenodd" d="M3.06487 4C3.06487 3.46957 3.27672 2.96086 3.65382 2.58579C4.03092 2.21072 4.54238 2 5.07568 2H7.08649C7.45246 2 7.7963 2.097 8.09189 2.268C8.39739 2.09201 8.74426 1.99954 9.0973 2H11.1081C11.839 2 12.4795 2.388 12.8314 2.969C13.0425 2.801 13.2898 2.673 13.5673 2.599L15.5098 2.082C15.7649 2.01394 16.0309 1.99653 16.2928 2.03077C16.5546 2.065 16.8071 2.1502 17.0359 2.28151C17.2646 2.41281 17.4651 2.58765 17.6259 2.79604C17.7867 3.00442 17.9047 3.24227 17.973 3.496L22.1354 18.951C22.2038 19.2047 22.2213 19.4694 22.1869 19.7298C22.1525 19.9902 22.0668 20.2414 21.9348 20.4689C21.8028 20.6964 21.627 20.8958 21.4175 21.0558C21.208 21.2157 20.9689 21.333 20.7138 21.401L18.7713 21.918C18.5162 21.9861 18.2502 22.0035 17.9883 21.9692C17.7265 21.935 17.4739 21.8498 17.2452 21.7185C17.0165 21.5872 16.816 21.4124 16.6552 21.204C16.4944 20.9956 16.3764 20.7577 16.3081 20.504L13.1189 8.663V20C13.1189 20.5304 12.9071 21.0391 12.53 21.4142C12.1529 21.7893 11.6414 22 11.1081 22H9.0973C8.74426 22.0005 8.39739 21.908 8.09189 21.732C7.7864 21.908 7.43953 22.0005 7.08649 22H5.07568C4.54238 22 4.03092 21.7893 3.65382 21.4142C3.27672 21.0391 3.06487 20.5304 3.06487 20V4ZM5.07568 4H7.08649V20H5.07568V4ZM11.1081 20H9.0973V4H11.1081V20ZM14.0871 4.531L16.0296 4.014L20.194 19.469L18.2515 19.986L14.0871 4.531Z" fill="white"/>
</svg>
