<svg width="24" height="24" viewBox="0 0 24 24" fill="none" xmlns="http://www.w3.org/2000/svg">
<path d="M10.3438 8.608L11.4104 6.378C11.4647 6.26455 11.5487 6.16902 11.6529 6.10223C11.7571 6.03543 11.8773 6.00003 12 6.00003C12.1227 6.00003 12.2429 6.03543 12.3471 6.10223C12.4513 6.16902 12.5353 6.26455 12.5896 6.378L13.6562 8.608L16.0427 8.965C16.5818 9.045 16.7971 9.729 16.4073 10.122L14.6812 11.857L15.0885 14.307C15.1095 14.4318 15.0962 14.5602 15.0501 14.6777C15.004 14.7951 14.9269 14.8968 14.8276 14.9714C14.7282 15.0459 14.6106 15.0903 14.4881 15.0994C14.3656 15.1085 14.243 15.0821 14.1343 15.023L12 13.866L9.86667 15.023C9.75802 15.0822 9.63546 15.1089 9.51287 15.0999C9.39028 15.091 9.27258 15.0468 9.17312 14.9723C9.07367 14.8979 8.99644 14.7962 8.9502 14.6787C8.90396 14.5613 8.89055 14.4329 8.91151 14.308L9.31879 11.858L7.59273 10.122C7.50472 10.0337 7.44245 9.92175 7.41297 9.79883C7.3835 9.67591 7.38799 9.54693 7.42594 9.42651C7.46388 9.30608 7.53378 9.19902 7.6277 9.11746C7.72161 9.03589 7.8358 8.98308 7.95733 8.965L10.3438 8.608ZM11.3697 9.528C11.3225 9.62635 11.2528 9.71139 11.1666 9.77584C11.0805 9.84029 10.9805 9.88221 10.8752 9.898L9.46521 10.11L10.4853 11.135C10.5615 11.2118 10.6185 11.3065 10.6514 11.411C10.6844 11.5155 10.6923 11.6267 10.6744 11.735L10.433 13.183L11.6936 12.499C11.788 12.4477 11.8932 12.4209 12 12.4209C12.1068 12.4209 12.212 12.4477 12.3064 12.499L13.567 13.183L13.3256 11.735C13.3076 11.6267 13.3154 11.5155 13.3483 11.4109C13.3813 11.3064 13.4384 11.2117 13.5147 11.135L14.5348 10.11L13.1258 9.898C13.0205 9.88221 12.9205 9.84029 12.8343 9.77584C12.7482 9.71139 12.6785 9.62635 12.6313 9.528L12 8.21L11.3697 9.528ZM6.42424 2C5.78129 2 5.16468 2.26339 4.71004 2.73223C4.25541 3.20107 4 3.83696 4 4.5V19.5C4 20.163 4.25541 20.7989 4.71004 21.2678C5.16468 21.7366 5.78129 22 6.42424 22H19.2727C19.4656 22 19.6506 21.921 19.787 21.7803C19.9234 21.6397 20 21.4489 20 21.25C20 21.0511 19.9234 20.8603 19.787 20.7197C19.6506 20.579 19.4656 20.5 19.2727 20.5H6.42424C6.16706 20.5 5.92042 20.3946 5.73856 20.2071C5.55671 20.0196 5.45455 19.7652 5.45455 19.5H19.2727C19.4656 19.5 19.6506 19.421 19.787 19.2803C19.9234 19.1397 20 18.9489 20 18.75V4.5C20 4.1717 19.9373 3.84661 19.8155 3.54329C19.6936 3.23998 19.5151 2.96438 19.29 2.73223C19.0648 2.50009 18.7976 2.31594 18.5035 2.1903C18.2094 2.06466 17.8941 2 17.5758 2H6.42424ZM18.5455 18H5.45455V4.5C5.45455 4.23478 5.55671 3.98043 5.73856 3.79289C5.92042 3.60536 6.16706 3.5 6.42424 3.5H17.5758C17.8329 3.5 18.0796 3.60536 18.2614 3.79289C18.4433 3.98043 18.5455 4.23478 18.5455 4.5V18Z" fill="white"/>
</svg>
